<svg xmlns="http://www.w3.org/2000/svg" xmlns:xlink="http://www.w3.org/1999/xlink" width="40" zoomAndPan="magnify" viewBox="0 0 30 30.000001" height="40" preserveAspectRatio="xMidYMid meet" version="1.0"><defs><clipPath id="id1"><path d="M 17 7 L 26.8125 7 L 26.8125 14 L 17 14 Z M 17 7 " clip-rule="nonzero"/></clipPath><clipPath id="id2"><path d="M 16 6 L 26.8125 6 L 26.8125 15 L 16 15 Z M 16 6 " clip-rule="nonzero"/></clipPath><clipPath id="id3"><path d="M 4 12 L 25 12 L 25 29.03125 L 4 29.03125 Z M 4 12 " clip-rule="nonzero"/></clipPath><clipPath id="id4"><path d="M 2.859375 10 L 26.8125 10 L 26.8125 14 L 2.859375 14 Z M 2.859375 10 " clip-rule="nonzero"/></clipPath></defs><path fill="#7eaf41" d="M 14.773438 11.539062 C 9.222656 8.464844 14.773438 0.339844 14.773438 0.339844 C 14.773438 0.339844 20.328125 8.464844 14.773438 11.539062 Z M 14.773438 11.539062 " fill-opacity="1" fill-rule="nonzero"/><path fill="#000000" d="M 14.777344 11.878906 C 14.722656 11.878906 14.664062 11.863281 14.617188 11.835938 C 13.285156 11.097656 12.445312 10.023438 12.121094 8.644531 C 11.757812 7.082031 12.046875 5.171875 12.988281 2.972656 C 13.679688 1.351562 14.464844 0.195312 14.5 0.148438 C 14.5625 0.0546875 14.664062 0 14.777344 0 C 14.886719 0 14.988281 0.0546875 15.050781 0.144531 C 15.085938 0.195312 15.871094 1.351562 16.5625 2.96875 C 17.503906 5.171875 17.792969 7.078125 17.429688 8.640625 C 17.105469 10.023438 16.265625 11.097656 14.9375 11.835938 C 14.886719 11.863281 14.832031 11.878906 14.777344 11.878906 Z M 14.777344 0.96875 C 14.039062 2.183594 12.125 5.707031 12.777344 8.488281 C 13.039062 9.617188 13.714844 10.511719 14.777344 11.148438 C 15.839844 10.511719 16.511719 9.617188 16.777344 8.484375 C 17.425781 5.699219 15.511719 2.183594 14.777344 0.96875 Z M 14.777344 0.96875 " fill-opacity="1" fill-rule="nonzero"/><path fill="#7eaf41" d="M 17.039062 12.09375 C 13.246094 6.960938 21.628906 1.90625 21.628906 1.90625 C 21.628906 1.90625 23.351562 11.636719 17.039062 12.09375 Z M 17.039062 12.09375 " fill-opacity="1" fill-rule="nonzero"/><path fill="#000000" d="M 17.039062 12.433594 C 16.933594 12.433594 16.835938 12.382812 16.773438 12.296875 C 15.863281 11.066406 15.539062 9.738281 15.8125 8.34375 C 16.121094 6.765625 17.167969 5.152344 18.925781 3.546875 C 20.21875 2.367188 21.40625 1.644531 21.453125 1.613281 C 21.550781 1.558594 21.667969 1.550781 21.765625 1.597656 C 21.867188 1.644531 21.9375 1.738281 21.957031 1.847656 C 22 2.082031 22.9375 7.578125 20.636719 10.578125 C 19.777344 11.699219 18.574219 12.324219 17.0625 12.433594 C 17.054688 12.433594 17.046875 12.433594 17.039062 12.433594 Z M 21.371094 2.480469 C 20.199219 3.277344 17.015625 5.671875 16.46875 8.476562 C 16.246094 9.617188 16.492188 10.714844 17.199219 11.738281 C 18.429688 11.609375 19.40625 11.078125 20.109375 10.160156 C 21.839844 7.90625 21.539062 3.898438 21.371094 2.480469 Z M 21.371094 2.480469 " fill-opacity="1" fill-rule="nonzero"/><g clip-path="url(#id1)"><path fill="#7eaf41" d="M 17.269531 13.242188 C 16.691406 6.855469 26.441406 7 26.441406 7 C 26.441406 7 22.882812 16.207031 17.269531 13.242188 Z M 17.269531 13.242188 " fill-opacity="1" fill-rule="nonzero"/></g><g clip-path="url(#id2)"><path fill="#000000" d="M 19.480469 14.171875 C 18.695312 14.171875 17.90625 13.960938 17.117188 13.546875 C 17.015625 13.492188 16.949219 13.390625 16.9375 13.273438 C 16.796875 11.746094 17.210938 10.441406 18.160156 9.394531 C 19.238281 8.21875 20.964844 7.398438 23.289062 6.964844 C 25.003906 6.644531 26.386719 6.660156 26.445312 6.660156 C 26.554688 6.664062 26.65625 6.71875 26.71875 6.8125 C 26.78125 6.90625 26.792969 7.023438 26.75 7.125 C 26.667969 7.34375 24.628906 12.527344 21.121094 13.863281 C 20.578125 14.066406 20.03125 14.171875 19.480469 14.171875 Z M 17.589844 13.027344 C 18.703125 13.566406 19.808594 13.632812 20.882812 13.226562 C 23.523438 12.222656 25.339844 8.648438 25.925781 7.351562 C 24.519531 7.410156 20.566406 7.761719 18.652344 9.859375 C 17.875 10.710938 17.515625 11.777344 17.589844 13.027344 Z M 17.589844 13.027344 " fill-opacity="1" fill-rule="nonzero"/></g><path fill="#7eaf41" d="M 13.390625 11.753906 C 17.183594 6.621094 8.800781 1.566406 8.800781 1.566406 C 8.800781 1.566406 7.078125 11.296875 13.390625 11.753906 Z M 13.390625 11.753906 " fill-opacity="1" fill-rule="nonzero"/><path fill="#000000" d="M 13.390625 12.09375 C 13.382812 12.09375 13.371094 12.09375 13.367188 12.09375 C 11.855469 11.984375 10.652344 11.359375 9.789062 10.238281 C 8.816406 8.96875 8.300781 7.113281 8.253906 4.710938 C 8.222656 2.949219 8.460938 1.566406 8.472656 1.507812 C 8.492188 1.398438 8.5625 1.304688 8.664062 1.257812 C 8.765625 1.210938 8.882812 1.21875 8.976562 1.273438 C 9.175781 1.394531 13.890625 4.277344 14.617188 8.003906 C 14.890625 9.394531 14.570312 10.726562 13.660156 11.957031 C 13.59375 12.042969 13.496094 12.09375 13.390625 12.09375 Z M 9.058594 2.140625 C 8.886719 3.554688 8.589844 7.566406 10.320312 9.820312 C 11.023438 10.738281 12 11.269531 13.230469 11.398438 C 13.9375 10.375 14.179688 9.277344 13.957031 8.136719 C 13.410156 5.328125 10.230469 2.933594 9.058594 2.140625 Z M 9.058594 2.140625 " fill-opacity="1" fill-rule="nonzero"/><path fill="#7eaf41" d="M 13.160156 12.902344 C 13.738281 6.515625 3.988281 6.660156 3.988281 6.660156 C 3.988281 6.660156 7.546875 15.867188 13.160156 12.902344 Z M 13.160156 12.902344 " fill-opacity="1" fill-rule="nonzero"/><path fill="#000000" d="M 10.949219 13.832031 C 10.398438 13.832031 9.851562 13.730469 9.308594 13.523438 C 7.828125 12.960938 6.425781 11.648438 5.148438 9.632812 C 4.207031 8.144531 3.699219 6.839844 3.679688 6.785156 C 3.636719 6.683594 3.652344 6.566406 3.710938 6.472656 C 3.773438 6.382812 3.875 6.324219 3.984375 6.320312 C 4.21875 6.316406 9.722656 6.269531 12.269531 9.054688 C 13.21875 10.101562 13.632812 11.402344 13.492188 12.933594 C 13.484375 13.050781 13.417969 13.152344 13.3125 13.207031 C 12.523438 13.621094 11.734375 13.832031 10.949219 13.832031 Z M 4.503906 7.011719 C 5.089844 8.308594 6.90625 11.882812 9.546875 12.886719 C 10.621094 13.292969 11.726562 13.226562 12.839844 12.683594 C 12.910156 11.4375 12.554688 10.371094 11.777344 9.519531 C 9.863281 7.421875 5.910156 7.070312 4.503906 7.011719 Z M 13.160156 12.902344 Z M 13.160156 12.902344 " fill-opacity="1" fill-rule="nonzero"/><path fill="#8dc63f" d="M 13.953125 13.113281 C 10 8.101562 18.21875 2.785156 18.21875 2.785156 C 18.21875 2.785156 20.246094 12.453125 13.953125 13.113281 Z M 13.953125 13.113281 " fill-opacity="1" fill-rule="nonzero"/><path fill="#000000" d="M 13.949219 13.453125 C 13.847656 13.453125 13.75 13.40625 13.6875 13.324219 C 12.742188 12.125 12.375 10.804688 12.605469 9.402344 C 12.863281 7.820312 13.863281 6.171875 15.570312 4.511719 C 16.824219 3.289062 17.992188 2.53125 18.039062 2.5 C 18.132812 2.4375 18.246094 2.429688 18.347656 2.472656 C 18.449219 2.515625 18.527344 2.605469 18.546875 2.714844 C 18.597656 2.945312 19.707031 8.414062 17.5 11.480469 C 16.675781 12.628906 15.492188 13.292969 13.984375 13.449219 C 13.972656 13.449219 13.960938 13.453125 13.949219 13.453125 Z M 17.980469 3.367188 C 16.835938 4.199219 13.726562 6.695312 13.269531 9.515625 C 13.082031 10.664062 13.359375 11.75 14.101562 12.75 C 15.324219 12.582031 16.285156 12.019531 16.960938 11.082031 C 18.621094 8.769531 18.195312 4.773438 17.980469 3.367188 Z M 17.980469 3.367188 " fill-opacity="1" fill-rule="nonzero"/><path fill="#8dc63f" d="M 15.824219 14.511719 C 14.285156 8.289062 23.941406 6.914062 23.941406 6.914062 C 23.941406 6.914062 21.820312 16.5625 15.824219 14.511719 Z M 15.824219 14.511719 " fill-opacity="1" fill-rule="nonzero"/><path fill="#000000" d="M 17.449219 15.136719 C 16.890625 15.136719 16.3125 15.035156 15.71875 14.835938 C 15.613281 14.796875 15.53125 14.707031 15.503906 14.59375 C 15.132812 13.105469 15.34375 11.75 16.125 10.570312 C 17.011719 9.238281 18.589844 8.160156 20.824219 7.367188 C 22.46875 6.785156 23.839844 6.585938 23.898438 6.578125 C 24.007812 6.5625 24.117188 6.601562 24.191406 6.683594 C 24.265625 6.765625 24.296875 6.878906 24.273438 6.988281 C 24.222656 7.21875 22.992188 12.660156 19.726562 14.523438 C 19.007812 14.933594 18.246094 15.136719 17.449219 15.136719 Z M 16.109375 14.246094 C 17.289062 14.605469 18.394531 14.5 19.394531 13.929688 C 21.851562 12.527344 23.101562 8.714844 23.484375 7.339844 C 22.105469 7.617188 18.253906 8.582031 16.679688 10.953125 C 16.039062 11.917969 15.847656 13.023438 16.109375 14.246094 Z M 16.109375 14.246094 " fill-opacity="1" fill-rule="nonzero"/><path fill="#8dc63f" d="M 12.589844 12.769531 C 18.046875 9.523438 12.242188 1.574219 12.242188 1.574219 C 12.242188 1.574219 6.941406 9.875 12.589844 12.769531 Z M 12.589844 12.769531 " fill-opacity="1" fill-rule="nonzero"/><path fill="#000000" d="M 12.589844 13.109375 C 12.539062 13.109375 12.484375 13.097656 12.4375 13.074219 C 11.085938 12.378906 10.214844 11.332031 9.847656 9.960938 C 9.433594 8.410156 9.667969 6.492188 10.539062 4.261719 C 11.179688 2.621094 11.929688 1.441406 11.960938 1.390625 C 12.019531 1.296875 12.121094 1.242188 12.234375 1.238281 C 12.339844 1.234375 12.449219 1.285156 12.511719 1.375 C 12.546875 1.421875 13.367188 2.554688 14.109375 4.148438 C 15.117188 6.320312 15.46875 8.21875 15.152344 9.789062 C 14.875 11.183594 14.070312 12.285156 12.761719 13.0625 C 12.707031 13.089844 12.648438 13.109375 12.589844 13.109375 Z M 12.261719 2.203125 C 11.5625 3.445312 9.757812 7.023438 10.496094 9.78125 C 10.796875 10.902344 11.496094 11.777344 12.578125 12.375 C 13.621094 11.707031 14.265625 10.792969 14.496094 9.65625 C 15.058594 6.855469 13.039062 3.398438 12.261719 2.203125 Z M 12.261719 2.203125 " fill-opacity="1" fill-rule="nonzero"/><path fill="#8dc63f" d="M 11.941406 13.738281 C 14.914062 8.074219 5.863281 4.386719 5.863281 4.386719 C 5.863281 4.386719 5.632812 14.269531 11.941406 13.738281 Z M 11.941406 13.738281 " fill-opacity="1" fill-rule="nonzero"/><path fill="#000000" d="M 11.457031 14.097656 C 10.164062 14.097656 9.058594 13.664062 8.152344 12.800781 C 7 11.699219 6.207031 9.941406 5.800781 7.578125 C 5.496094 5.839844 5.527344 4.4375 5.527344 4.378906 C 5.53125 4.265625 5.585938 4.164062 5.679688 4.101562 C 5.769531 4.042969 5.886719 4.03125 5.988281 4.070312 C 6.203125 4.160156 11.300781 6.269531 12.585938 9.839844 C 13.066406 11.175781 12.949219 12.539062 12.234375 13.898438 C 12.183594 14 12.082031 14.066406 11.96875 14.074219 C 11.796875 14.089844 11.625 14.097656 11.457031 14.097656 Z M 11.941406 13.738281 Z M 6.203125 4.914062 C 6.25 6.339844 6.5625 10.347656 8.613281 12.308594 C 9.449219 13.105469 10.496094 13.476562 11.726562 13.414062 C 12.269531 12.289062 12.347656 11.167969 11.953125 10.078125 C 10.988281 7.390625 7.480469 5.515625 6.203125 4.914062 Z M 6.203125 4.914062 " fill-opacity="1" fill-rule="nonzero"/><path fill="#a6a6a6" d="M 17.832031 28.6875 L 11.097656 28.6875 C 8.703125 28.6875 6.664062 26.925781 6.285156 24.53125 L 4.429688 12.789062 L 24.5 12.789062 L 22.640625 24.53125 C 22.261719 26.925781 20.226562 28.6875 17.832031 28.6875 Z M 17.832031 28.6875 " fill-opacity="1" fill-rule="nonzero"/><g clip-path="url(#id3)"><path fill="#000000" d="M 17.832031 29.027344 L 11.097656 29.027344 C 8.523438 29.027344 6.363281 27.160156 5.953125 24.582031 L 4.035156 12.449219 L 24.894531 12.449219 L 22.972656 24.582031 C 22.566406 27.15625 20.402344 29.027344 17.832031 29.027344 Z M 4.820312 13.128906 L 6.617188 24.476562 C 6.972656 26.71875 8.855469 28.347656 11.097656 28.347656 L 17.832031 28.347656 C 20.074219 28.347656 21.957031 26.71875 22.3125 24.476562 L 24.109375 13.128906 Z M 4.820312 13.128906 " fill-opacity="1" fill-rule="nonzero"/></g><path fill="#a6a6a6" d="M 24.382812 13.117188 L 4.546875 13.117188 C 3.808594 13.117188 3.207031 12.511719 3.207031 11.761719 C 3.207031 11.011719 3.808594 10.402344 4.546875 10.402344 L 24.378906 10.402344 C 25.121094 10.402344 25.71875 11.011719 25.71875 11.761719 C 25.722656 12.511719 25.121094 13.117188 24.382812 13.117188 Z M 24.382812 13.117188 " fill-opacity="1" fill-rule="nonzero"/><g clip-path="url(#id4)"><path fill="#000000" d="M 24.382812 13.457031 L 4.546875 13.457031 C 3.621094 13.457031 2.871094 12.699219 2.871094 11.761719 C 2.871094 10.824219 3.621094 10.0625 4.546875 10.0625 L 24.378906 10.0625 C 25.304688 10.0625 26.054688 10.824219 26.054688 11.761719 C 26.054688 12.699219 25.304688 13.457031 24.382812 13.457031 Z M 4.546875 10.742188 C 3.992188 10.742188 3.542969 11.199219 3.542969 11.761719 C 3.542969 12.320312 3.992188 12.777344 4.546875 12.777344 L 24.378906 12.777344 C 24.933594 12.777344 25.386719 12.320312 25.386719 11.761719 C 25.386719 11.199219 24.933594 10.742188 24.378906 10.742188 Z M 4.546875 10.742188 " fill-opacity="1" fill-rule="nonzero"/></g></svg>