<?xml version="1.0" encoding="utf-8"?>
<!-- Generator: Adobe Illustrator 25.2.3, SVG Export Plug-In . SVG Version: 6.00 Build 0)  -->
<svg version="1.1" id="Capa_1" xmlns="http://www.w3.org/2000/svg" xmlns:xlink="http://www.w3.org/1999/xlink" x="0px" y="0px"
	 viewBox="0 0 317 120" style="enable-background:new 0 0 317 120;" xml:space="preserve">
<style type="text/css">
	.st0{fill:#7EAF41;}
	.st1{clip-path:url(#SVGID_2_);}
	.st2{clip-path:url(#SVGID_4_);}
	.st3{fill:#8DC63F;}
	.st4{fill:#A6A6A6;}
	.st5{clip-path:url(#SVGID_6_);}
	.st6{clip-path:url(#SVGID_8_);}
	.st7{fill:#737373;}
</style>
<path class="st0" d="M50.28,48.34c-21.17-11.56,0-42.11,0-42.11S71.46,36.78,50.28,48.34z"/>
<g>
	<defs>
		<rect id="SVGID_1_" x="39.31" y="4.95" width="22.13" height="45.3"/>
	</defs>
	<clipPath id="SVGID_2_">
		<use xlink:href="#SVGID_1_"  style="overflow:visible;"/>
	</clipPath>
	<g class="st1">
		<path d="M50.29,49.62c-0.21,0-0.42-0.05-0.61-0.15c-5.07-2.77-8.27-6.81-9.5-12.01c-1.39-5.87-0.28-13.05,3.3-21.33
			c2.64-6.09,5.63-10.44,5.76-10.62c0.24-0.35,0.63-0.56,1.05-0.56c0.42,0,0.81,0.21,1.05,0.55c0.13,0.18,3.12,4.53,5.76,10.62
			c3.58,8.28,4.7,15.46,3.31,21.33c-1.23,5.2-4.43,9.25-9.5,12.01C50.71,49.57,50.5,49.62,50.29,49.62z M50.29,8.59
			c-2.81,4.57-10.11,17.81-7.63,28.27c1.01,4.25,3.57,7.62,7.63,10.01c4.05-2.39,6.62-5.75,7.63-10.01
			C60.4,26.39,53.1,13.17,50.29,8.59z"/>
	</g>
</g>
<path class="st0" d="M58.92,50.43c-14.47-19.3,17.49-38.31,17.49-38.31S82.98,48.72,58.92,50.43z"/>
<path d="M58.92,51.71c-0.4,0-0.78-0.19-1.02-0.51c-3.46-4.63-4.7-9.63-3.65-14.88c1.18-5.93,5.16-11.99,11.86-18.03
	c4.93-4.44,9.46-7.15,9.64-7.27c0.37-0.21,0.8-0.24,1.18-0.07c0.38,0.17,0.65,0.53,0.73,0.94c0.16,0.87,3.74,21.56-5.02,32.83
	c-3.28,4.22-7.87,6.56-13.63,6.98C58.98,51.71,58.94,51.71,58.92,51.71z M75.42,14.28c-4.45,2.99-16.59,12.01-18.68,22.55
	c-0.85,4.29,0.09,8.41,2.79,12.26c4.68-0.49,8.41-2.48,11.09-5.93C77.22,34.68,76.07,19.61,75.42,14.28z"/>
<path class="st0" d="M59.79,54.76c-2.21-24.02,34.95-23.48,34.95-23.48S81.19,65.9,59.79,54.76z"/>
<g>
	<defs>
		<rect id="SVGID_3_" x="58.04" y="29.82" width="38.13" height="28.95"/>
	</defs>
	<clipPath id="SVGID_4_">
		<use xlink:href="#SVGID_3_"  style="overflow:visible;"/>
	</clipPath>
	<g class="st2">
		<path d="M68.22,58.24c-2.99,0-6.01-0.78-9.02-2.35c-0.38-0.2-0.64-0.58-0.68-1.02c-0.53-5.75,1.04-10.66,4.67-14.59
			c4.1-4.43,10.68-7.51,19.55-9.15C89.27,29.94,94.55,30,94.77,30c0.42,0.01,0.81,0.22,1.04,0.57c0.24,0.35,0.28,0.78,0.13,1.18
			c-0.33,0.82-8.09,20.32-21.47,25.34C72.41,57.85,70.32,58.24,68.22,58.24z M61.01,53.94c4.24,2.03,8.46,2.29,12.55,0.75
			c10.07-3.77,16.99-17.21,19.22-22.09c-5.36,0.22-20.42,1.54-27.72,9.43C62.1,45.23,60.74,49.24,61.01,53.94z"/>
	</g>
</g>
<path class="st0" d="M45.01,49.15c14.46-19.3-17.49-38.31-17.49-38.31S20.95,47.44,45.01,49.15z"/>
<path d="M45.01,50.43c-0.03,0-0.07,0-0.09,0c-5.77-0.41-10.35-2.76-13.63-6.98c-3.71-4.77-5.68-11.76-5.85-20.78
	c-0.13-6.63,0.78-11.83,0.83-12.05c0.08-0.41,0.35-0.76,0.73-0.94c0.38-0.17,0.82-0.15,1.18,0.06c0.76,0.46,18.74,11.29,21.51,25.3
	c1.04,5.24-0.19,10.25-3.65,14.88C45.78,50.24,45.41,50.43,45.01,50.43z M28.5,13c-0.66,5.32-1.8,20.4,4.8,28.89
	c2.68,3.45,6.41,5.44,11.09,5.93c2.7-3.85,3.63-7.98,2.78-12.27C45.09,24.99,32.96,15.99,28.5,13z"/>
<path class="st0" d="M44.13,53.47C46.34,29.45,9.17,30,9.17,30S22.74,64.62,44.13,53.47z"/>
<path d="M35.7,56.97c-2.1,0-4.18-0.39-6.24-1.16c-5.66-2.12-10.99-7.04-15.87-14.64c-3.58-5.59-5.52-10.5-5.6-10.7
	c-0.15-0.39-0.1-0.83,0.13-1.18c0.24-0.34,0.63-0.56,1.04-0.57c0.89-0.01,21.87-0.2,31.58,10.29c3.63,3.92,5.2,8.83,4.67,14.59
	c-0.04,0.43-0.3,0.82-0.69,1.01C41.71,56.18,38.69,56.97,35.7,56.97z M11.14,31.32c2.23,4.88,9.15,18.32,19.22,22.09
	c4.09,1.53,8.31,1.28,12.55-0.75c0.28-4.7-1.08-8.7-4.05-11.91C31.56,32.86,16.5,31.54,11.14,31.32z"/>
<path class="st3" d="M47.15,54.26C32.08,35.42,63.42,15.42,63.42,15.42S71.14,51.79,47.15,54.26z"/>
<path d="M47.14,55.54c-0.39,0-0.75-0.17-1-0.48c-3.61-4.51-5-9.47-4.12-14.75c0.98-5.96,4.79-12.14,11.29-18.4
	c4.79-4.6,9.23-7.45,9.41-7.57c0.35-0.22,0.79-0.26,1.18-0.1c0.38,0.16,0.67,0.51,0.75,0.91c0.18,0.87,4.42,21.43-3.99,32.97
	c-3.14,4.32-7.66,6.81-13.4,7.4C47.23,55.53,47.18,55.54,47.14,55.54z M62.5,17.61c-4.36,3.13-16.21,12.52-17.96,23.13
	c-0.71,4.32,0.35,8.41,3.17,12.17c4.66-0.64,8.33-2.75,10.9-6.28C64.95,37.93,63.33,22.91,62.5,17.61z"/>
<path class="st3" d="M54.29,59.52c-5.88-23.4,30.94-28.57,30.94-28.57S77.15,67.25,54.29,59.52z"/>
<path d="M60.49,61.88c-2.14,0-4.34-0.38-6.6-1.14c-0.41-0.14-0.72-0.48-0.83-0.9c-1.41-5.61-0.61-10.69,2.38-15.13
	c3.38-5.01,9.4-9.07,17.92-12.05c6.26-2.19,11.48-2.94,11.71-2.97c0.42-0.06,0.83,0.09,1.12,0.4c0.28,0.31,0.4,0.73,0.31,1.14
	c-0.19,0.87-4.88,21.32-17.32,28.34C66.42,61.11,63.52,61.88,60.49,61.88z M55.37,58.53c4.5,1.35,8.71,0.96,12.52-1.18
	c9.36-5.27,14.14-19.62,15.6-24.78c-5.27,1.04-19.94,4.66-25.94,13.57C55.11,49.77,54.37,53.93,55.37,58.53z"/>
<path class="st3" d="M41.96,52.97c20.8-12.21-1.32-42.09-1.32-42.09S20.43,42.08,41.96,52.97z"/>
<path d="M41.96,54.25c-0.2,0-0.4-0.05-0.58-0.14c-5.16-2.61-8.48-6.54-9.88-11.7c-1.58-5.83-0.69-13.04,2.63-21.43
	c2.45-6.17,5.3-10.61,5.42-10.79c0.23-0.35,0.62-0.57,1.03-0.58c0.42-0.01,0.82,0.18,1.07,0.52c0.14,0.18,3.26,4.43,6.09,10.43
	c3.84,8.16,5.18,15.3,3.98,21.22c-1.07,5.23-4.14,9.38-9.12,12.3C42.4,54.19,42.18,54.25,41.96,54.25z M40.71,13.24
	c-2.66,4.66-9.54,18.12-6.74,28.5c1.14,4.22,3.81,7.5,7.94,9.75c3.98-2.51,6.44-5.96,7.31-10.23
	C51.37,30.73,43.66,17.73,40.71,13.24z"/>
<path class="st3" d="M39.48,56.61c11.33-21.3-23.17-35.16-23.17-35.16S15.44,58.62,39.48,56.61z"/>
<path d="M37.64,57.97c-4.92,0-9.15-1.64-12.59-4.89c-4.4-4.14-7.41-10.74-8.97-19.63c-1.15-6.54-1.04-11.82-1.03-12.04
	c0.01-0.42,0.22-0.8,0.58-1.03c0.35-0.23,0.79-0.28,1.18-0.12c0.82,0.33,20.25,8.27,25.14,21.7c1.84,5.02,1.39,10.16-1.33,15.26
	c-0.2,0.38-0.59,0.64-1.02,0.67C38.93,57.94,38.27,57.97,37.64,57.97z M17.62,23.43c0.17,5.36,1.36,20.44,9.19,27.8
	c3.18,3,7.17,4.4,11.87,4.16c2.07-4.23,2.36-8.44,0.86-12.55C35.85,32.74,22.48,25.7,17.62,23.43z"/>
<path class="st4" d="M61.94,112.84H36.26c-9.12,0-16.89-6.62-18.34-15.63l-7.07-44.16h76.51l-7.08,44.16
	C78.83,106.21,71.06,112.84,61.94,112.84z"/>
<g>
	<defs>
		<rect id="SVGID_5_" x="8.66" y="51.1" width="80.88" height="63.03"/>
	</defs>
	<clipPath id="SVGID_6_">
		<use xlink:href="#SVGID_5_"  style="overflow:visible;"/>
	</clipPath>
	<g class="st5">
		<path d="M61.94,114.12H36.26c-9.8,0-18.04-7.03-19.59-16.71L9.35,51.77h79.51l-7.32,45.64C79.99,107.08,71.74,114.12,61.94,114.12
			z M12.34,54.33L19.19,97c1.35,8.43,8.53,14.56,17.07,14.56h25.68c8.54,0,15.72-6.13,17.07-14.56l6.85-42.68H12.34z"/>
	</g>
</g>
<path class="st4" d="M86.91,54.29H11.29c-2.82,0-5.1-2.28-5.1-5.11c0-2.82,2.29-5.1,5.1-5.1H86.9c2.82,0,5.11,2.29,5.11,5.1
	C92.02,52,89.73,54.29,86.91,54.29z"/>
<g>
	<defs>
		<rect id="SVGID_7_" x="4.86" y="42.59" width="88.93" height="13.62"/>
	</defs>
	<clipPath id="SVGID_8_">
		<use xlink:href="#SVGID_7_"  style="overflow:visible;"/>
	</clipPath>
	<g class="st6">
		<path d="M86.91,55.57H11.29c-3.52,0-6.39-2.86-6.39-6.39c0-3.52,2.86-6.39,6.39-6.39H86.9c3.52,0,6.39,2.86,6.39,6.39
			C93.29,52.7,90.43,55.57,86.91,55.57z M11.29,45.35c-2.11,0-3.83,1.72-3.83,3.83c0,2.11,1.72,3.83,3.83,3.83H86.9
			c2.11,0,3.83-1.72,3.83-3.83c0-2.11-1.72-3.83-3.83-3.83H11.29z"/>
	</g>
</g>
<g>
	<g transform="translate(113.037311, 112.283492)">
		<g>
			<path class="st7" d="M-5.63-18.06c-3.67,0-6.69-0.87-9.06-2.62c-2.36-1.76-3.63-4.26-3.8-7.52h9.36
				c0.09,1.11,0.42,1.92,0.98,2.42c0.57,0.51,1.3,0.76,2.21,0.76c0.8,0,1.47-0.2,1.98-0.6c0.52-0.41,0.78-0.97,0.78-1.69
				c0-0.92-0.44-1.64-1.3-2.14c-0.86-0.51-2.26-1.08-4.2-1.7c-2.07-0.69-3.73-1.36-5-2c-1.27-0.65-2.37-1.59-3.31-2.83
				c-0.94-1.24-1.41-2.86-1.41-4.86c0-2.04,0.51-3.78,1.52-5.23c1.02-1.44,2.42-2.54,4.22-3.29c1.79-0.75,3.82-1.13,6.09-1.13
				c3.68,0,6.61,0.86,8.81,2.58c2.2,1.72,3.37,4.13,3.53,7.24H-3.8c-0.03-0.96-0.32-1.68-0.88-2.15c-0.55-0.48-1.26-0.72-2.12-0.72
				c-0.67,0-1.21,0.2-1.62,0.59c-0.42,0.39-0.63,0.94-0.63,1.66c0,0.6,0.23,1.11,0.69,1.54c0.46,0.44,1.04,0.81,1.73,1.13
				c0.69,0.31,1.71,0.71,3.05,1.18c2,0.69,3.65,1.36,4.95,2.04c1.3,0.68,2.42,1.62,3.37,2.83c0.94,1.21,1.41,2.74,1.41,4.59
				c0,1.88-0.47,3.57-1.41,5.07c-0.94,1.49-2.3,2.67-4.08,3.54C-1.12-18.49-3.21-18.06-5.63-18.06z"/>
		</g>
	</g>
</g>
<g>
	<g transform="translate(145.682041, 112.283492)">
		<g>
			<path class="st7" d="M3.32-43.53v25.15h-8.83v-3.59c-0.74,1.14-1.78,2.06-3.1,2.77c-1.31,0.7-2.82,1.05-4.52,1.05
				c-2.93,0-5.24-0.96-6.93-2.89c-1.69-1.93-2.53-4.56-2.53-7.87v-14.62h8.74v13.5c0,1.44,0.38,2.57,1.14,3.39
				c0.76,0.82,1.77,1.22,3.03,1.22c1.28,0,2.3-0.41,3.05-1.22c0.74-0.82,1.12-1.96,1.12-3.39v-13.5H3.32z"/>
		</g>
	</g>
</g>
<g>
	<g transform="translate(181.801845, 112.283492)">
		<g>
			<path class="st7" d="M-29.21-30.97c0-2.6,0.54-4.87,1.61-6.81c1.08-1.94,2.58-3.44,4.51-4.48c1.92-1.04,4.13-1.57,6.61-1.57
				c3.2,0,5.89,0.87,8.07,2.62c2.18,1.75,3.58,4.19,4.2,7.33h-9.32c-0.53-1.64-1.58-2.46-3.14-2.46c-1.1,0-1.98,0.46-2.62,1.37
				c-0.64,0.9-0.96,2.24-0.96,4c0,1.77,0.32,3.11,0.96,4.04c0.65,0.92,1.52,1.38,2.62,1.38c1.59,0,2.63-0.82,3.14-2.47h9.32
				c-0.62,3.11-2.02,5.55-4.2,7.32c-2.18,1.77-4.88,2.65-8.07,2.65c-2.48,0-4.69-0.52-6.61-1.57c-1.93-1.04-3.43-2.54-4.51-4.48
				C-28.67-26.05-29.21-28.34-29.21-30.97z"/>
		</g>
	</g>
</g>
<g>
	<g transform="translate(213.762083, 112.283492)">
		<g>
			<path class="st7" d="M-6.8-43.53v25.15h-8.83v-3.59c-0.74,1.14-1.78,2.06-3.1,2.77c-1.31,0.7-2.82,1.05-4.52,1.05
				c-2.93,0-5.24-0.96-6.93-2.89c-1.69-1.93-2.53-4.56-2.53-7.87v-14.62h8.74v13.5c0,1.44,0.38,2.57,1.14,3.39
				c0.76,0.82,1.77,1.22,3.03,1.22c1.28,0,2.3-0.41,3.05-1.22c0.74-0.82,1.12-1.96,1.12-3.39v-13.5H-6.8z"/>
		</g>
	</g>
</g>
<g>
	<g transform="translate(249.881887, 112.283492)">
		<g>
			<path class="st7" d="M-29.11-40.03c0.69-1.16,1.66-2.08,2.91-2.77c1.26-0.69,2.74-1.04,4.44-1.04c2,0,3.82,0.53,5.44,1.57
				c1.63,1.05,2.92,2.54,3.86,4.48c0.94,1.94,1.41,4.21,1.41,6.81c0,2.6-0.47,4.88-1.41,6.84c-0.94,1.96-2.23,3.47-3.86,4.51
				c-1.62,1.05-3.44,1.57-5.44,1.57c-1.7,0-3.18-0.34-4.42-1.02c-1.24-0.69-2.22-1.62-2.94-2.79v15.51h-8.78v-37.17h8.78V-40.03z
				 M-19.96-30.97c0-1.64-0.45-2.92-1.33-3.83c-0.88-0.91-1.96-1.37-3.25-1.37c-1.29,0-2.37,0.47-3.26,1.4
				c-0.88,0.92-1.32,2.19-1.32,3.8c0,1.64,0.44,2.93,1.32,3.86c0.88,0.92,1.97,1.38,3.26,1.38c1.28,0,2.37-0.47,3.25-1.41
				C-20.41-28.08-19.96-29.36-19.96-30.97z"/>
		</g>
	</g>
</g>
<g>
	<g transform="translate(285.685787, 112.283492)">
		<g>
			<path class="st7" d="M-31.52-18.06c-2.51,0-4.76-0.52-6.74-1.57c-1.99-1.04-3.55-2.54-4.68-4.48c-1.14-1.94-1.7-4.23-1.7-6.86
				c0-2.6,0.57-4.87,1.72-6.81c1.15-1.94,2.72-3.44,4.71-4.48c2-1.04,4.25-1.57,6.76-1.57c2.51,0,4.76,0.53,6.74,1.57
				c1.99,1.05,3.55,2.54,4.7,4.48c1.15,1.94,1.73,4.21,1.73,6.81c0,2.6-0.58,4.88-1.73,6.84c-1.14,1.96-2.72,3.47-4.72,4.51
				C-26.76-18.58-29.02-18.06-31.52-18.06z M-31.52-25.68c1.22,0,2.25-0.46,3.07-1.37c0.82-0.91,1.24-2.22,1.24-3.92
				c0-1.7-0.41-3-1.24-3.9c-0.82-0.89-1.83-1.34-3.02-1.34c-1.2,0-2.2,0.45-3.01,1.34c-0.81,0.9-1.21,2.19-1.21,3.9
				c0,1.73,0.39,3.05,1.16,3.95C-33.75-26.12-32.75-25.68-31.52-25.68z"/>
		</g>
	</g>
</g>
<g>
	<g transform="translate(319.172962, 112.283492)">
		<g>
			<path class="st7" d="M-33.36-25.86v7.49h-3.8c-6.43,0-9.64-3.18-9.64-9.55v-8.29h-3.09v-7.32h3.09v-6.09h8.83v6.09h4.58v7.32
				h-4.58v8.42c0,0.69,0.15,1.19,0.47,1.49c0.32,0.29,0.85,0.44,1.6,0.44H-33.36z"/>
		</g>
	</g>
</g>
<g>
	<g transform="translate(341.339782, 112.283492)">
		<g>
			<path class="st7" d="M-40.78-18.06c-2.27,0-4.3-0.38-6.08-1.14c-1.78-0.76-3.18-1.81-4.22-3.14c-1.03-1.33-1.6-2.83-1.72-4.51
				h8.51c0.12,0.81,0.5,1.44,1.12,1.89c0.63,0.45,1.41,0.67,2.34,0.67c0.72,0,1.28-0.15,1.7-0.44c0.42-0.3,0.63-0.69,0.63-1.17
				c0-0.63-0.35-1.09-1.04-1.38c-0.69-0.3-1.82-0.63-3.41-1c-1.79-0.35-3.29-0.75-4.48-1.2c-1.19-0.45-2.23-1.18-3.11-2.19
				c-0.88-1.02-1.32-2.4-1.32-4.14c0-1.49,0.4-2.84,1.21-4.04c0.8-1.21,2-2.18,3.56-2.9s3.46-1.08,5.67-1.08
				c3.29,0,5.87,0.81,7.76,2.42c1.88,1.62,2.97,3.73,3.27,6.36h-7.94c-0.14-0.8-0.49-1.42-1.05-1.85c-0.55-0.43-1.29-0.65-2.22-0.65
				c-0.71,0-1.26,0.13-1.64,0.4c-0.37,0.27-0.56,0.64-0.56,1.12c0,0.61,0.34,1.06,1.02,1.37c0.69,0.31,1.8,0.63,3.33,0.96
				c1.83,0.39,3.34,0.82,4.55,1.3c1.21,0.48,2.27,1.25,3.18,2.31c0.91,1.06,1.37,2.5,1.37,4.32c0,1.46-0.43,2.78-1.28,3.95
				c-0.85,1.16-2.06,2.08-3.63,2.75C-36.82-18.39-38.66-18.06-40.78-18.06z"/>
		</g>
	</g>
</g>
</svg>
